<svg width="37" height="37" viewBox="0 0 37 37" fill="none" xmlns="http://www.w3.org/2000/svg">
<rect x="0.199036" y="0.349243" width="36" height="36" rx="8" fill="#FFDE2E"/>
<path fill-rule="evenodd" clip-rule="evenodd" d="M9.19904 18.3492C9.19904 14.7541 9.19904 12.9565 10.0557 11.6618C10.4383 11.0836 10.9334 10.5885 11.5116 10.2059C12.8063 9.34924 14.6039 9.34924 18.199 9.34924C21.7942 9.34924 23.5917 9.34924 24.8865 10.2059C25.4646 10.5885 25.9598 11.0836 26.3423 11.6618C27.199 12.9565 27.199 14.7541 27.199 18.3492C27.199 21.9444 27.199 23.742 26.3423 25.0367C25.9598 25.6149 25.4646 26.11 24.8865 26.4926C23.5917 27.3492 21.7942 27.3492 18.199 27.3492C14.6039 27.3492 12.8063 27.3492 11.5116 26.4926C10.9334 26.11 10.4383 25.6149 10.0557 25.0367C9.19904 23.742 9.19904 21.9444 9.19904 18.3492ZM22.8583 18.3495C22.8583 20.9228 20.7722 23.0089 18.1989 23.0089C15.6256 23.0089 13.5395 20.9228 13.5395 18.3495C13.5395 15.7761 15.6256 13.6901 18.1989 13.6901C20.7722 13.6901 22.8583 15.7761 22.8583 18.3495ZM18.1989 21.4325C19.9016 21.4325 21.2819 20.0522 21.2819 18.3495C21.2819 16.6468 19.9016 15.2665 18.1989 15.2665C16.4962 15.2665 15.1159 16.6468 15.1159 18.3495C15.1159 20.0522 16.4962 21.4325 18.1989 21.4325ZM23.0423 14.5508C23.647 14.5508 24.1371 14.0606 24.1371 13.456C24.1371 12.8513 23.647 12.3611 23.0423 12.3611C22.4377 12.3611 21.9475 12.8513 21.9475 13.456C21.9475 14.0606 22.4377 14.5508 23.0423 14.5508Z" fill="black"/>
</svg>
