<svg width="37" height="37" viewBox="0 0 37 37" fill="none" xmlns="http://www.w3.org/2000/svg">
<rect x="0.199036" y="0.349243" width="36" height="36" rx="8" fill="#FFDE2E"/>
<path d="M9.19907 11.7692C9.19907 11.192 9.40177 10.7158 9.80717 10.3406C10.2126 9.96542 10.7396 9.77783 11.3883 9.77783C12.0253 9.77783 12.5408 9.96252 12.9346 10.3319C13.34 10.7129 13.5427 11.2093 13.5427 11.8211C13.5427 12.3752 13.3458 12.837 12.952 13.2064C12.5466 13.5874 12.0137 13.7778 11.3535 13.7778H11.3361C10.6991 13.7778 10.1836 13.5874 9.7898 13.2064C9.39597 12.8255 9.19907 12.3464 9.19907 11.7692ZM9.42493 26.9207V15.3536H13.2821V26.9207H9.42493ZM15.4191 26.9207H19.2763V20.4618C19.2763 20.0578 19.3226 19.7461 19.4153 19.5267C19.5774 19.1342 19.8236 18.8023 20.1537 18.5311C20.4838 18.2598 20.8979 18.1241 21.396 18.1241C22.6933 18.1241 23.3419 18.9957 23.3419 20.7389V26.9207H27.1991V20.2887C27.1991 18.5801 26.7937 17.2843 25.9828 16.4012C25.172 15.5181 24.1006 15.0765 22.7686 15.0765C21.2744 15.0765 20.1103 15.7172 19.2763 16.9986V17.0332H19.2589L19.2763 16.9986V15.3536H15.4191C15.4423 15.723 15.4539 16.8716 15.4539 18.7995C15.4539 20.7273 15.4423 23.4344 15.4191 26.9207Z" fill="black"/>
</svg>
